# xmcd
#
# Track frame offsets:
#	150
#	18353
#	37073
#	57372
#	75470
#	94169
#	109708
#	127095
#	143312
#	157125
#	175328
#	194048
#	214347
#	232445
#	251144
#	266683
#	284070
#	300287
#
# Disc length: 4188 seconds
#
# Revision: 1
# Processed by: cddbd v1.5.2PL0 Copyright (c) Steve Scherf et al.
# Submitted via: audiograbber 1.83.01
#
DISCID=13105a12
DTITLE=Stellar Records - PHC0702
DYEAR=2007
DGENRE=Karaoke
TTITLE0=Jack Ingram - Lips of an angel
TTITLE1=Martina McBride - Anyway
TTITLE2=Carrie Underwood - Wasted
TTITLE3=Keith Urban - Stupid Boy
TTITLE4=Pat Green - Dixie Lullaby
TTITLE5=Brooks and Dunn - Hillbilly Deluxe
TTITLE6=Tim McGraw - I've Got Friends That Do
TTITLE7=Blake Shelton - Don't Make Me
TTITLE8=Josh Turner - Me and God
TTITLE9=Jack Ingram ( Vocals ) - Lips of an angel ( Vocals )
TTITLE10=Martina McBride ( Vocals ) - Anyway ( Vocals )
TTITLE11=Carrie Underwood ( Vocals ) - Wasted ( Vocals )
TTITLE12=Keith Urban ( Vocals ) - Stupid Boy ( Vocals )
TTITLE13=Pat Green ( Vocals ) - Dixie Lullaby ( Vocals )
TTITLE14=Brooks and Dunn ( Vocals ) - Hillbilly Deluxe ( Vocals )
TTITLE15=Tim McGraw ( Vocals ) - I've got friends that do ( Vocals )
TTITLE16=Blake Shelton ( Vocals ) - Don't make me ( Vocals )
TTITLE17=Josh Turner ( Vocals ) - Me and God ( Vocals )
EXTD=
EXTT0=
EXTT1=
EXTT2=
EXTT3=
EXTT4=
EXTT5=
EXTT6=
EXTT7=
EXTT8=
EXTT9=
EXTT10=
EXTT11=
EXTT12=
EXTT13=
EXTT14=
EXTT15=
EXTT16=
EXTT17=
PLAYORDER=
